<?xml version="1.0" encoding="UTF-8"?>
<svg width="199px" height="60px" viewBox="0 0 199 60" version="1.1" xmlns="http://www.w3.org/2000/svg" xmlns:xlink="http://www.w3.org/1999/xlink">
    <!-- Generator: Sketch 58 (84663) - https://sketch.com -->
    <title>Logo/Zinobe</title>
    <desc>Created with Sketch.</desc>
    <defs>
        <polygon id="path-1" points="0.6781 0.7809 36.799 0.7809 36.799 36.6789 0.6781 36.6789"></polygon>
        <polygon id="path-3" points="0 0.1306 31.4749 0.1306 31.4749 6 0 6"></polygon>
    </defs>
    <g id="Logo/Zinobe" stroke="none" stroke-width="1" fill="none" fill-rule="evenodd">
        <g id="Group-17">
            <path d="M31.262,13.9072 C31.473,14.3522 31.579,14.7872 31.579,15.2122 C31.579,15.8692 31.325,16.4962 30.816,17.0892 L9.525,42.1042 L28.556,42.1042 C29.383,42.1042 30.083,42.4002 30.657,42.9952 C31.25,43.5682 31.548,44.2672 31.548,45.0952 C31.548,45.9232 31.25,46.6232 30.657,47.1952 C30.083,47.7682 29.383,48.0542 28.556,48.0542 L3.065,48.0542 C1.792,48.0542 0.89,47.4812 0.36,46.3362 C0.148,45.8902 0.041,45.4572 0.041,45.0312 C0.041,44.3742 0.296,43.7472 0.805,43.1532 L22.128,18.1392 L3.065,18.1392 C2.238,18.1392 1.536,17.8432 0.964,17.2492 C0.37,16.6762 0.073,15.9752 0.073,15.1482 C0.073,14.3212 0.37,13.6212 0.964,13.0482 C1.536,12.4542 2.238,12.1572 3.065,12.1572 L28.556,12.1572 C29.829,12.1572 30.731,12.7402 31.262,13.9072" id="Fill-1" fill="#FFFFFF"></path>
            <path d="M38.8841,12.1572 C39.7111,12.1572 40.4111,12.4542 40.9851,13.0482 C41.5781,13.6212 41.8751,14.3212 41.8751,15.1482 L41.8751,45.0952 C41.8751,45.9232 41.5781,46.6232 40.9851,47.1952 C40.4111,47.7682 39.7111,48.0542 38.8841,48.0542 C38.0571,48.0542 37.3571,47.7682 36.7831,47.1952 C36.1901,46.6232 35.8931,45.9232 35.8931,45.0952 L35.8931,15.1482 C35.8931,14.3212 36.1901,13.6212 36.7831,13.0482 C37.3571,12.4542 38.0571,12.1572 38.8841,12.1572" id="Fill-3" fill="#FFFFFF"></path>
            <path d="M65.2513,12.0605 C69.7913,12.0605 73.6743,13.8225 76.8983,17.3435 C80.1243,20.8435 81.7363,25.0775 81.7363,30.0425 L81.7363,45.0955 C81.7363,45.9025 81.4383,46.6025 80.8453,47.1955 C80.2723,47.7685 79.5723,48.0545 78.7453,48.0545 C77.9173,48.0545 77.2173,47.7685 76.6443,47.1955 C76.0713,46.6025 75.7853,45.9025 75.7853,45.0955 L75.7853,30.0425 C75.7853,26.7325 74.7563,23.9005 72.6983,21.5445 C70.6183,19.2115 68.1363,18.0435 65.2513,18.0435 C62.3233,18.0435 59.8303,19.2115 57.7723,21.5445 C55.7143,23.9005 54.6863,26.7325 54.6863,30.0425 L54.6863,44.9985 C54.6863,45.8275 54.3983,46.5275 53.8263,47.0995 C53.2313,47.6725 52.5313,47.9585 51.7263,47.9585 C50.8983,47.9585 50.1873,47.6725 49.5943,47.0995 C49.0213,46.5275 48.7343,45.8275 48.7343,44.9985 L48.7343,15.0525 C48.7343,14.2245 49.0213,13.5245 49.5943,12.9525 C50.1873,12.3585 50.8983,12.0605 51.7263,12.0605 C52.5313,12.0605 53.2313,12.3585 53.8263,12.9525 C54.3983,13.5245 54.6863,14.2245 54.6863,15.0525 L54.6863,16.2305 C57.7403,13.4515 61.2623,12.0605 65.2513,12.0605" id="Fill-5" fill="#FFFFFF"></path>
            <path d="M102.8851,42.1044 C106.1101,42.1044 108.8671,40.9364 111.1591,38.6024 C113.4501,36.2484 114.5961,33.4264 114.5961,30.1374 C114.5961,26.8284 113.4501,23.9954 111.1591,21.6404 C108.8671,19.3064 106.1101,18.1394 102.8851,18.1394 C99.6591,18.1394 96.9021,19.3064 94.6111,21.6404 C92.3201,23.9954 91.1731,26.8284 91.1731,30.1374 C91.1731,33.4264 92.3201,36.2484 94.6111,38.6024 C96.9021,40.9364 99.6591,42.1044 102.8851,42.1044 M102.8851,12.1574 C107.7431,12.1574 111.9021,13.9174 115.3601,17.4394 C118.8181,20.9404 120.5481,25.1724 120.5481,30.1374 C120.5481,35.0814 118.8181,39.3024 115.3601,42.8034 C111.9021,46.3044 107.7431,48.0544 102.8851,48.0544 C98.0051,48.0544 93.8471,46.3044 90.4091,42.8034 C86.9501,39.3024 85.2221,35.0814 85.2221,30.1374 C85.2221,25.1724 86.9501,20.9404 90.4091,17.4394 C93.8471,13.9174 98.0051,12.1574 102.8851,12.1574" id="Fill-7" fill="#FFFFFF"></path>
            <path d="M142.3323,42.1044 C145.5573,42.1044 148.3143,40.9364 150.6063,38.6024 C152.8763,36.2484 154.0123,33.4264 154.0123,30.1374 C154.0123,26.8284 152.8763,23.9954 150.6063,21.6404 C148.3143,19.3064 145.5573,18.1394 142.3323,18.1394 C139.1063,18.1394 136.3503,19.3064 134.0573,21.6404 C131.7663,23.9954 130.6203,26.8284 130.6203,30.1374 C130.6203,33.4264 131.7663,36.2484 134.0573,38.6024 C136.3503,40.9364 139.1063,42.1044 142.3323,42.1044 M142.3323,12.1574 C147.1893,12.1574 151.3493,13.9174 154.8083,17.4394 C158.2443,20.9404 159.9633,25.1724 159.9633,30.1374 C159.9633,35.0814 158.2443,39.3024 154.8083,42.8034 C151.3493,46.3044 147.1893,48.0544 142.3323,48.0544 C137.8773,48.0544 133.9733,46.5484 130.6203,43.5354 L130.6203,45.0954 C130.6203,45.9224 130.3343,46.6234 129.7623,47.1954 C129.1673,47.7684 128.4673,48.0544 127.6613,48.0544 C126.8343,48.0544 126.1223,47.7684 125.5283,47.1954 C124.9563,46.6234 124.6703,45.9224 124.6703,45.0954 L124.6703,2.9914 C124.6703,2.1634 124.9563,1.4634 125.5283,0.8904 C126.1223,0.2964 126.8343,0.0004 127.6613,0.0004 C128.4673,0.0004 129.1673,0.2964 129.7623,0.8904 C130.3343,1.4634 130.6203,2.1634 130.6203,2.9914 L130.6203,16.6754 C133.9733,13.6634 137.8773,12.1574 142.3323,12.1574" id="Fill-9" fill="#FFFFFF"></path>
            <g id="Group-13" transform="translate(162.000000, 11.864000)">
                <mask id="mask-2" fill="white">
                    <use xlink:href="#path-1"></use>
                </mask>
                <g id="Clip-12"></g>
                <path d="M30.4661,15.8019 C29.7871,13.1719 28.3751,11.0069 26.2341,9.3099 C24.0271,7.5899 21.5341,6.7319 18.7551,6.7319 C15.9541,6.7319 13.4501,7.5899 11.2431,9.3099 C9.1001,11.0069 7.6901,13.1719 7.0121,15.8019 L30.4661,15.8019 Z M5.9611,31.4269 C4.3061,29.7729 3.0231,27.8839 2.1101,25.7629 C1.1551,23.5349 0.6781,21.2119 0.6781,18.7929 C0.6781,13.8279 2.4401,9.5849 5.9611,6.0629 C7.6361,4.4079 9.5571,3.1249 11.7211,2.2129 C13.9481,1.2579 16.2931,0.7809 18.7551,0.7809 C23.7191,0.7809 27.9731,2.5419 31.5161,6.0629 C33.1711,7.7189 34.4541,9.6279 35.3671,11.7919 C36.3221,14.0199 36.7991,16.3539 36.7991,18.7929 C36.7991,19.6199 36.5131,20.3209 35.9391,20.8939 C35.3451,21.4889 34.6351,21.7839 33.8081,21.7839 L7.0121,21.7839 C7.6901,24.3729 9.1121,26.5059 11.2761,28.1819 C13.4601,29.8789 15.9541,30.7279 18.7551,30.7279 C23.1671,30.7279 26.5721,29.3799 28.9701,26.6849 C29.5001,26.0709 30.1801,25.7419 31.0071,25.6989 C31.8341,25.6559 32.5551,25.9009 33.1711,26.4319 C33.7861,26.9829 34.1151,27.6719 34.1571,28.4989 C34.1991,29.3069 33.9451,30.0169 33.3941,30.6319 C29.8291,34.6629 24.9491,36.6789 18.7551,36.6789 C13.7681,36.6789 9.5041,34.9279 5.9611,31.4269 L5.9611,31.4269 Z" id="Fill-11" fill="#FFFFFF" mask="url(#mask-2)"></path>
            </g>
            <g id="Group-16" transform="translate(0.000000, 53.864000)">
                <mask id="mask-4" fill="white">
                    <use xlink:href="#path-3"></use>
                </mask>
                <g id="Clip-15"></g>
                <path d="M31.4749,3.0656 C31.4749,3.8776 31.2139,4.5636 30.6939,5.1266 C30.1919,5.7086 29.5779,6.0006 28.8529,6.0006 L2.5949,6.0006 C1.8699,6.0006 1.2559,5.7086 0.7529,5.1266 C0.2509,4.5636 -0.0001,3.8776 -0.0001,3.0656 C-0.0001,2.2536 0.2509,1.5666 0.7529,1.0046 C1.2559,0.4216 1.8699,0.1306 2.5949,0.1306 L28.8529,0.1306 C29.5779,0.1306 30.1919,0.4216 30.6939,1.0046 C31.2139,1.5666 31.4749,2.2536 31.4749,3.0656" id="Fill-14" fill="#00D964" mask="url(#mask-4)"></path>
            </g>
        </g>
    </g>
</svg>